<svg width="171" height="183" viewBox="0 0 171 183" fill="none" xmlns="http://www.w3.org/2000/svg">
<g filter="url(#filter0_d_11_13)">
<path d="M29.4979 114.687C31.4979 113.687 40.3382 100.301 47.9979 91.6865C55.063 83.741 66.9979 72.1865 66.9979 72.1865C66.9979 72.1865 68.45 71.0992 69.4979 71.1865C70.3681 71.259 71.0135 71.4599 71.4979 72.1865C72.0394 72.9989 71.4979 74.6865 71.4979 74.6865C71.4979 74.6865 71.4943 75.1863 70.9979 76.1865C70.5015 77.1868 48.9979 101.187 48.9979 101.187C48.9979 101.187 36.4755 114.35 30.0015 124.187C24.0965 133.158 17.0015 148.687 17.0015 148.687C17.0015 148.687 16.9472 150.009 17.4979 150.687C18.1135 151.444 18.5373 152.012 19.4979 152.187C20.7866 152.421 21.6351 151.672 22.4979 150.687C22.9355 150.187 23.4979 148.687 23.4979 148.687C23.4979 148.687 32.9962 129.5 35.5 129C38.0038 128.5 48.6927 128.125 57.4979 126.187C65.1567 124.501 76.4979 119.687 76.4979 119.687C76.4979 119.687 86.8592 115.041 92.9979 111.187C98.5543 107.698 106.498 101.187 106.498 101.187C106.498 101.187 114.479 93.9056 118.998 88.6865C123.011 84.0512 125.09 81.2838 128.498 76.1865C130.787 72.7621 133.998 67.1865 133.998 67.1865C133.998 67.1865 134.583 65.2013 133.998 64.1865C133.429 63.2003 131.498 62.6865 131.498 62.6865H120.998C119.135 62.6865 130.682 57.9771 135.998 53.6865C137.828 52.2098 138.958 51.4634 140.498 49.6865C145.312 44.1319 145.998 31.6865 145.998 31.6865C145.998 31.6865 148.001 11.6901 146.998 10.6865C145.994 9.68292 135.979 9.86386 128.998 10.6865C122.225 11.4847 118.518 12.685 111.998 14.6865C104.372 17.0275 100.2 18.7572 92.9979 22.1865C86.1313 25.4559 82.6664 27.7333 76.5015 32.1868C69.7824 37.0406 60.4979 46.1865 60.4979 46.1865C60.4979 46.1865 56.4632 50.6958 53.9979 53.6865C51.1656 57.1223 49.9018 58.9365 47.5015 62.6868C44.3471 67.6151 40.4979 76.1865 40.4979 76.1865L34.4979 89.6865C34.4979 89.6865 32.4201 96.0228 31.4979 100.187C30.2618 105.767 27.4979 115.686 29.4979 114.687Z" fill="black"/>
</g>
<defs>
<filter id="filter0_d_11_13" x="0" y="0" width="170.279" height="182.23" filterUnits="userSpaceOnUse" color-interpolation-filters="sRGB">
<feFlood flood-opacity="0" result="BackgroundImageFix"/>
<feColorMatrix in="SourceAlpha" type="matrix" values="0 0 0 0 0 0 0 0 0 0 0 0 0 0 0 0 0 0 127 0" result="hardAlpha"/>
<feOffset dx="3" dy="10"/>
<feGaussianBlur stdDeviation="10"/>
<feComposite in2="hardAlpha" operator="out"/>
<feColorMatrix type="matrix" values="0 0 0 0 0 0 0 0 0 0 0 0 0 0 0 0 0 0 0.1 0"/>
<feBlend mode="normal" in2="BackgroundImageFix" result="effect1_dropShadow_11_13"/>
<feBlend mode="normal" in="SourceGraphic" in2="effect1_dropShadow_11_13" result="shape"/>
</filter>
</defs>
</svg>
