<svg width="260" height="260" viewBox="0 0 260 260" fill="none" xmlns="http://www.w3.org/2000/svg">
<rect width="260" height="260" rx="80" fill="white"/>
<g filter="url(#filter0_d_11_12)">
<path d="M77.4979 163.687C79.4979 162.687 88.3382 149.301 95.9979 140.687C103.063 132.741 114.998 121.187 114.998 121.187C114.998 121.187 116.45 120.099 117.498 120.187C118.368 120.259 119.013 120.46 119.498 121.187C120.039 121.999 119.498 123.687 119.498 123.687C119.498 123.687 119.494 124.186 118.998 125.187C118.501 126.187 96.9979 150.187 96.9979 150.187C96.9979 150.187 84.4755 163.35 78.0015 173.187C72.0965 182.158 65.0015 197.687 65.0015 197.687C65.0015 197.687 64.9472 199.009 65.4979 199.687C66.1135 200.444 66.5373 201.012 67.4979 201.187C68.7866 201.421 69.6351 200.672 70.4979 199.687C70.9355 199.187 71.4979 197.687 71.4979 197.687C71.4979 197.687 80.9962 178.5 83.5 178C86.0038 177.5 96.6927 177.125 105.498 175.187C113.157 173.501 124.498 168.687 124.498 168.687C124.498 168.687 134.859 164.041 140.998 160.187C146.554 156.698 154.498 150.187 154.498 150.187C154.498 150.187 162.479 142.906 166.998 137.687C171.011 133.051 173.09 130.284 176.498 125.187C178.787 121.762 181.998 116.187 181.998 116.187C181.998 116.187 182.583 114.201 181.998 113.187C181.429 112.2 179.498 111.687 179.498 111.687H168.998C167.135 111.687 178.682 106.977 183.998 102.687C185.828 101.21 186.958 100.463 188.498 98.6865C193.312 93.1319 193.998 80.6865 193.998 80.6865C193.998 80.6865 196.001 60.6901 194.998 59.6865C193.994 58.6829 183.979 58.8639 176.998 59.6865C170.225 60.4847 166.518 61.685 159.998 63.6865C152.372 66.0275 148.2 67.7572 140.998 71.1865C134.131 74.4559 130.666 76.7333 124.501 81.1868C117.782 86.0406 108.498 95.1865 108.498 95.1865C108.498 95.1865 104.463 99.6958 101.998 102.687C99.1656 106.122 97.9018 107.936 95.5015 111.687C92.3471 116.615 88.4979 125.187 88.4979 125.187L82.4979 138.687C82.4979 138.687 80.4201 145.023 79.4979 149.187C78.2618 154.767 75.4979 164.686 77.4979 163.687Z" fill="black"/>
</g>
<defs>
<filter id="filter0_d_11_12" x="48" y="55" width="170.279" height="182.23" filterUnits="userSpaceOnUse" color-interpolation-filters="sRGB">
<feFlood flood-opacity="0" result="BackgroundImageFix"/>
<feColorMatrix in="SourceAlpha" type="matrix" values="0 0 0 0 0 0 0 0 0 0 0 0 0 0 0 0 0 0 127 0" result="hardAlpha"/>
<feOffset dx="3" dy="16"/>
<feGaussianBlur stdDeviation="10"/>
<feComposite in2="hardAlpha" operator="out"/>
<feColorMatrix type="matrix" values="0 0 0 0 0 0 0 0 0 0 0 0 0 0 0 0 0 0 0.1 0"/>
<feBlend mode="normal" in2="BackgroundImageFix" result="effect1_dropShadow_11_12"/>
<feBlend mode="normal" in="SourceGraphic" in2="effect1_dropShadow_11_12" result="shape"/>
</filter>
</defs>
</svg>
